<svg xmlns="http://www.w3.org/2000/svg" viewBox="0 0 800 500">
  <!-- Browser window frame -->
  <rect x="0" y="0" width="800" height="500" rx="8" fill="#f3f4f6" stroke="#d1d5db" stroke-width="1"/>

  <!-- Title bar -->
  <rect x="0" y="0" width="800" height="28" rx="8" fill="#e5e7eb"/>
  <rect x="0" y="12" width="800" height="16" fill="#e5e7eb"/>
  <circle cx="18" cy="14" r="5" fill="#ef4444" opacity="0.7"/>
  <circle cx="34" cy="14" r="5" fill="#fbbf24" opacity="0.7"/>
  <circle cx="50" cy="14" r="5" fill="#22c55e" opacity="0.7"/>

  <!-- Sidebar -->
  <rect x="0" y="28" width="180" height="472" fill="#166534"/>
  <rect x="0" y="460" width="180" height="40" rx="0" fill="#166534"/>

  <!-- Sidebar logo area -->
  <rect x="20" y="42" width="140" height="24" rx="4" fill="#16a34a" opacity="0.6"/>

  <!-- Sidebar menu items -->
  <rect x="20" y="84" width="140" height="10" rx="3" fill="#86efac" opacity="0.5"/>
  <rect x="20" y="104" width="120" height="10" rx="3" fill="#ffffff" opacity="0.2"/>
  <rect x="20" y="124" width="130" height="10" rx="3" fill="#ffffff" opacity="0.2"/>
  <rect x="20" y="144" width="110" height="10" rx="3" fill="#ffffff" opacity="0.2"/>
  <rect x="20" y="164" width="125" height="10" rx="3" fill="#ffffff" opacity="0.2"/>
  <rect x="20" y="194" width="100" height="8" rx="3" fill="#ffffff" opacity="0.1"/>
  <rect x="20" y="212" width="130" height="10" rx="3" fill="#ffffff" opacity="0.2"/>
  <rect x="20" y="232" width="115" height="10" rx="3" fill="#ffffff" opacity="0.2"/>

  <!-- Main content area background -->
  <rect x="180" y="28" width="620" height="472" fill="#f9fafb"/>

  <!-- Header bar -->
  <rect x="180" y="28" width="620" height="48" fill="#ffffff" stroke="#e5e7eb" stroke-width="0.5"/>
  <rect x="200" y="44" width="150" height="14" rx="4" fill="#e5e7eb"/>
  <circle cx="740" cy="52" r="14" fill="#dcfce7"/>
  <circle cx="705" cy="52" r="10" fill="#f3f4f6"/>

  <!-- KPI Cards Row -->
  <!-- Card 1 -->
  <rect x="200" y="92" width="132" height="75" rx="8" fill="#ffffff" stroke="#e5e7eb" stroke-width="0.5"/>
  <rect x="216" y="106" width="60" height="8" rx="3" fill="#d1d5db"/>
  <rect x="216" y="122" width="80" height="14" rx="3" fill="#16a34a"/>
  <rect x="216" y="144" width="50" height="8" rx="3" fill="#86efac" opacity="0.5"/>

  <!-- Card 2 -->
  <rect x="348" y="92" width="132" height="75" rx="8" fill="#ffffff" stroke="#e5e7eb" stroke-width="0.5"/>
  <rect x="364" y="106" width="55" height="8" rx="3" fill="#d1d5db"/>
  <rect x="364" y="122" width="70" height="14" rx="3" fill="#166534"/>
  <rect x="364" y="144" width="45" height="8" rx="3" fill="#86efac" opacity="0.5"/>

  <!-- Card 3 -->
  <rect x="496" y="92" width="132" height="75" rx="8" fill="#ffffff" stroke="#e5e7eb" stroke-width="0.5"/>
  <rect x="512" y="106" width="65" height="8" rx="3" fill="#d1d5db"/>
  <rect x="512" y="122" width="75" height="14" rx="3" fill="#16a34a"/>
  <rect x="512" y="144" width="55" height="8" rx="3" fill="#86efac" opacity="0.5"/>

  <!-- Card 4 -->
  <rect x="644" y="92" width="132" height="75" rx="8" fill="#ffffff" stroke="#e5e7eb" stroke-width="0.5"/>
  <rect x="660" y="106" width="50" height="8" rx="3" fill="#d1d5db"/>
  <rect x="660" y="122" width="85" height="14" rx="3" fill="#166534"/>
  <rect x="660" y="144" width="40" height="8" rx="3" fill="#86efac" opacity="0.5"/>

  <!-- Chart area -->
  <rect x="200" y="184" width="420" height="280" rx="8" fill="#ffffff" stroke="#e5e7eb" stroke-width="0.5"/>

  <!-- Chart title -->
  <rect x="220" y="200" width="120" height="10" rx="3" fill="#374151"/>
  <rect x="220" y="216" width="80" height="8" rx="3" fill="#d1d5db"/>

  <!-- Y-axis labels -->
  <rect x="220" y="245" width="20" height="6" rx="2" fill="#d1d5db"/>
  <rect x="220" y="285" width="20" height="6" rx="2" fill="#d1d5db"/>
  <rect x="220" y="325" width="20" height="6" rx="2" fill="#d1d5db"/>
  <rect x="220" y="365" width="20" height="6" rx="2" fill="#d1d5db"/>
  <rect x="220" y="405" width="20" height="6" rx="2" fill="#d1d5db"/>

  <!-- Grid lines -->
  <line x1="250" y1="248" x2="600" y2="248" stroke="#f3f4f6" stroke-width="1"/>
  <line x1="250" y1="288" x2="600" y2="288" stroke="#f3f4f6" stroke-width="1"/>
  <line x1="250" y1="328" x2="600" y2="328" stroke="#f3f4f6" stroke-width="1"/>
  <line x1="250" y1="368" x2="600" y2="368" stroke="#f3f4f6" stroke-width="1"/>
  <line x1="250" y1="408" x2="600" y2="408" stroke="#f3f4f6" stroke-width="1"/>

  <!-- Line chart -->
  <polyline points="260,380 300,350 340,365 380,310 420,290 460,305 500,270 540,255 580,265" stroke="#16a34a" stroke-width="2.5" fill="none" stroke-linecap="round" stroke-linejoin="round"/>

  <!-- Area fill under chart line -->
  <polygon points="260,380 300,350 340,365 380,310 420,290 460,305 500,270 540,255 580,265 580,410 260,410" fill="#16a34a" opacity="0.08"/>

  <!-- Data points -->
  <circle cx="260" cy="380" r="3.5" fill="#16a34a"/>
  <circle cx="300" cy="350" r="3.5" fill="#16a34a"/>
  <circle cx="340" cy="365" r="3.5" fill="#16a34a"/>
  <circle cx="380" cy="310" r="3.5" fill="#16a34a"/>
  <circle cx="420" cy="290" r="3.5" fill="#16a34a"/>
  <circle cx="460" cy="305" r="3.5" fill="#16a34a"/>
  <circle cx="500" cy="270" r="3.5" fill="#16a34a"/>
  <circle cx="540" cy="255" r="3.5" fill="#16a34a"/>
  <circle cx="580" cy="265" r="3.5" fill="#16a34a"/>

  <!-- X-axis labels -->
  <rect x="255" y="420" width="25" height="6" rx="2" fill="#d1d5db"/>
  <rect x="335" y="420" width="25" height="6" rx="2" fill="#d1d5db"/>
  <rect x="415" y="420" width="25" height="6" rx="2" fill="#d1d5db"/>
  <rect x="495" y="420" width="25" height="6" rx="2" fill="#d1d5db"/>
  <rect x="570" y="420" width="25" height="6" rx="2" fill="#d1d5db"/>

  <!-- Right side panel (recent activity) -->
  <rect x="636" y="184" width="140" height="280" rx="8" fill="#ffffff" stroke="#e5e7eb" stroke-width="0.5"/>
  <rect x="652" y="200" width="90" height="10" rx="3" fill="#374151"/>

  <!-- Activity items -->
  <circle cx="662" cy="232" r="6" fill="#dcfce7"/>
  <rect x="674" y="228" width="80" height="8" rx="2" fill="#e5e7eb"/>

  <circle cx="662" cy="258" r="6" fill="#dcfce7"/>
  <rect x="674" y="254" width="70" height="8" rx="2" fill="#e5e7eb"/>

  <circle cx="662" cy="284" r="6" fill="#dcfce7"/>
  <rect x="674" y="280" width="85" height="8" rx="2" fill="#e5e7eb"/>

  <circle cx="662" cy="310" r="6" fill="#dcfce7"/>
  <rect x="674" y="306" width="60" height="8" rx="2" fill="#e5e7eb"/>

  <circle cx="662" cy="336" r="6" fill="#dcfce7"/>
  <rect x="674" y="332" width="75" height="8" rx="2" fill="#e5e7eb"/>

  <circle cx="662" cy="362" r="6" fill="#dcfce7"/>
  <rect x="674" y="358" width="65" height="8" rx="2" fill="#e5e7eb"/>
</svg>